<?xml version="1.0" encoding="utf-8"?>
<!-- Generator: Adobe Illustrator 22.0.1, SVG Export Plug-In . SVG Version: 6.00 Build 0)  -->
<svg version="1.1" id="Layer_1" xmlns="http://www.w3.org/2000/svg" xmlns:xlink="http://www.w3.org/1999/xlink" x="0px" y="0px"
	 viewBox="0 0 256 128" style="enable-background:new 0 0 256 128;" xml:space="preserve">
<style type="text/css">
	.st0{fill:#242424;}
</style>
<g>
	<path class="st0" d="M75.2,62.4c0,1.1,0,2.1-0.1,2.9c-0.1,0.8-0.2,1.6-0.3,2.2c-0.4,1.8-1.1,3.3-2.3,4.6c-2.1,2.4-5,3.7-8.8,3.7
		c-3.1,0-5.7-0.8-7.8-2.5c-2.1-1.7-3.3-4.1-3.6-7.2h5.5c0.2,1.2,0.6,2.1,1,2.7c1.1,1.5,2.8,2.2,4.9,2.2c4,0,6-2.4,6-7.3v-3.3
		c-2.2,2.2-4.6,3.3-7.5,3.3c-3.2,0-5.8-1.2-7.9-3.5c-2.1-2.4-3.1-5.3-3.1-8.8c0-3.4,1-6.3,2.9-8.7c2.1-2.5,4.8-3.8,8.2-3.8
		c3,0,5.4,1.1,7.4,3.3v-2.7h5.4V62.4z M70,51.3c0-2.3-0.6-4.1-1.8-5.5c-1.2-1.4-2.8-2.1-4.8-2.1c-2.1,0-3.7,0.8-4.9,2.3
		c-1.1,1.4-1.6,3.1-1.6,5.3c0,2.1,0.5,3.9,1.6,5.3c1.2,1.5,2.8,2.2,4.9,2.2c2.1,0,3.7-0.8,4.9-2.3C69.5,55.2,70,53.4,70,51.3z"/>
	<path class="st0" d="M81.3,29.7c0-0.9,0.3-1.8,1-2.5c0.7-0.7,1.5-1,2.5-1c1,0,1.8,0.3,2.5,1c0.7,0.7,1,1.5,1,2.5s-0.3,1.8-1,2.5
		c-0.7,0.7-1.5,1-2.5,1c-1,0-1.8-0.3-2.5-1C81.6,31.5,81.3,30.7,81.3,29.7z M87.5,39.5V63h-5.4V39.5H87.5z"/>
	<path class="st0" d="M100,44.6V63h-5.5V44.6h-1.9v-5.1h1.9v-9.1c0-3,0.5-5.1,1.5-6.3c1.4-1.7,3.5-2.6,6.2-2.6c1,0,2.2,0.3,3.6,0.8
		V28l-0.6-0.3c-1.2-0.6-2.1-0.9-2.9-0.9c-1,0-1.6,0.3-2,1c-0.3,0.7-0.5,2-0.5,3.9v7.8h5.9v5.1H100z"/>
</g>
<g>
	<path class="st0" d="M128.4,81.2l-4.5,2.4c-0.7-1.4-1.6-2.2-2.6-2.2c-0.5,0-0.9,0.2-1.3,0.5s-0.5,0.8-0.5,1.3c0,0.9,1,1.8,3.1,2.7
		c2.9,1.2,4.8,2.4,5.8,3.4c1,1,1.5,2.5,1.5,4.2c0,2.3-0.8,4.2-2.5,5.7c-1.6,1.4-3.6,2.2-5.9,2.2c-3.9,0-6.7-1.9-8.4-5.8l4.6-2.1
		c0.6,1.1,1.1,1.8,1.5,2.1c0.7,0.6,1.4,0.9,2.4,0.9c1.8,0,2.8-0.8,2.8-2.5c0-1-0.7-1.9-2.1-2.7c-0.5-0.3-1.1-0.5-1.6-0.8
		c-0.5-0.3-1.1-0.5-1.7-0.8c-1.6-0.8-2.7-1.5-3.3-2.3c-0.8-1-1.2-2.2-1.2-3.8c0-2,0.7-3.7,2.1-5.1c1.4-1.3,3.2-2,5.2-2
		C124.7,76.5,126.9,78.1,128.4,81.2z"/>
	<path class="st0" d="M140.2,59.9v40.8h-5.4V59.9H140.2z"/>
	<path class="st0" d="M146.3,67.4c0-0.9,0.3-1.8,1-2.5c0.7-0.7,1.5-1,2.5-1c1,0,1.8,0.3,2.5,1c0.7,0.7,1,1.5,1,2.5
		c0,1-0.3,1.8-1,2.5c-0.7,0.7-1.5,1-2.5,1s-1.8-0.3-2.5-1C146.6,69.2,146.3,68.4,146.3,67.4z M152.5,77.2v23.5h-5.4V77.2H152.5z"/>
	<path class="st0" d="M177.7,78.2v7.2c-1.2-1.5-2.4-2.6-3.3-3.1c-1-0.6-2.1-0.9-3.4-0.9c-2,0-3.7,0.7-5.1,2.1c-1.4,1.4-2,3.2-2,5.4
		c0,2.2,0.7,4,2,5.4c1.3,1.4,3,2.1,5,2.1c1.3,0,2.5-0.3,3.5-0.8c1-0.5,2.1-1.6,3.4-3.2v7.2c-2.2,1.1-4.4,1.7-6.6,1.7
		c-3.6,0-6.7-1.2-9.1-3.5c-2.4-2.4-3.7-5.3-3.7-8.8c0-3.5,1.2-6.5,3.7-8.9c2.5-2.4,5.5-3.6,9.1-3.6
		C173.5,76.5,175.7,77.1,177.7,78.2z"/>
	<path class="st0" d="M204.4,90.2h-16.9c0.1,1.9,0.8,3.5,1.9,4.6c1.1,1.1,2.5,1.7,4.3,1.7c1.4,0,2.5-0.3,3.4-1
		c0.9-0.6,1.9-1.8,3-3.6l4.6,2.6c-0.7,1.2-1.5,2.2-2.2,3.1c-0.8,0.9-1.6,1.6-2.5,2.1c-0.9,0.6-1.9,1-2.9,1.2c-1,0.3-2.2,0.4-3.4,0.4
		c-3.5,0-6.3-1.1-8.5-3.4c-2.1-2.3-3.2-5.3-3.2-9c0-3.7,1-6.7,3.1-9c2.1-2.3,4.8-3.4,8.3-3.4c3.5,0,6.2,1.1,8.2,3.3
		c2,2.2,3,5.2,3,9.1L204.4,90.2z M198.8,85.7c-0.8-2.9-2.6-4.3-5.5-4.3c-0.7,0-1.3,0.1-1.9,0.3s-1.1,0.5-1.6,0.9
		c-0.5,0.4-0.9,0.8-1.2,1.4c-0.3,0.5-0.6,1.1-0.8,1.8H198.8z"/>
</g>
<g>
	<g>
		<line class="st0" x1="136.6" y1="5.9" x2="86" y2="120.1"/>
	</g>
	<g>
		
			<rect x="48.8" y="60.7" transform="matrix(0.4048 -0.9144 0.9144 0.4048 8.6317 139.2633)" class="st0" width="124.9" height="4.5"/>
	</g>
</g>
</svg>
