<?xml version="1.0" encoding="utf-8"?>
<!-- Generator: Adobe Illustrator 22.0.1, SVG Export Plug-In . SVG Version: 6.00 Build 0)  -->
<svg version="1.1" id="Layer_1" xmlns="http://www.w3.org/2000/svg" xmlns:xlink="http://www.w3.org/1999/xlink" x="0px" y="0px"
	 viewBox="0 0 300 128" style="enable-background:new 0 0 300 128;" xml:space="preserve">
<style type="text/css">
	.st0{fill:none;}
	.st1{fill:#484848;}
	.st2{enable-background:new    ;}
</style>
<g>
	<g>
		<g>
			<line class="st0" x1="178.6" y1="5.9" x2="127.9" y2="120.1"/>
		</g>
	</g>
	<g>
		<g>
			
				<rect x="90.8" y="60.7" transform="matrix(0.4048 -0.9144 0.9144 0.4048 33.6159 177.5699)" class="st1" width="124.9" height="4.5"/>
		</g>
	</g>
</g>
<g class="st2">
	<path class="st1" d="M170.8,80.9l-4.4,2.3c-0.7-1.4-1.5-2.1-2.6-2.1c-0.5,0-0.9,0.2-1.2,0.5s-0.5,0.7-0.5,1.2c0,0.9,1,1.7,3,2.6
		c2.8,1.2,4.7,2.3,5.6,3.3s1.5,2.4,1.5,4.1c0,2.2-0.8,4-2.4,5.5c-1.6,1.4-3.5,2.1-5.7,2.1c-3.8,0-6.5-1.9-8.1-5.6l4.5-2.1
		c0.6,1.1,1.1,1.8,1.4,2.1c0.6,0.6,1.4,0.9,2.3,0.9c1.8,0,2.7-0.8,2.7-2.4c0-0.9-0.7-1.8-2.1-2.6c-0.5-0.3-1.1-0.5-1.6-0.8
		s-1.1-0.5-1.6-0.8c-1.5-0.8-2.6-1.5-3.2-2.2c-0.8-1-1.2-2.2-1.2-3.7c0-2,0.7-3.6,2-4.9c1.4-1.3,3.1-1.9,5.1-1.9
		C167.2,76.4,169.4,77.9,170.8,80.9z"/>
	<path class="st1" d="M197.8,89.6h-16.4c0.1,1.9,0.8,3.4,1.8,4.5c1.1,1.1,2.5,1.6,4.1,1.6c1.3,0,2.4-0.3,3.3-0.9
		c0.8-0.6,1.8-1.8,2.9-3.5l4.5,2.5c-0.7,1.2-1.4,2.2-2.2,3s-1.6,1.5-2.5,2.1s-1.8,0.9-2.8,1.2s-2.1,0.4-3.3,0.4
		c-3.4,0-6.1-1.1-8.2-3.3c-2.1-2.2-3.1-5.1-3.1-8.8c0-3.6,1-6.5,3-8.8c2-2.2,4.7-3.3,8-3.3c3.4,0,6,1.1,8,3.2
		c1.9,2.1,2.9,5.1,2.9,8.8L197.8,89.6z M192.4,85.3c-0.7-2.8-2.5-4.2-5.3-4.2c-0.6,0-1.2,0.1-1.8,0.3s-1.1,0.5-1.5,0.8
		s-0.9,0.8-1.2,1.3s-0.6,1.1-0.8,1.8H192.4z"/>
	<path class="st1" d="M208.9,60.2v39.6h-5.3V60.2H208.9z"/>
	<path class="st1" d="M236.3,89.6H220c0.1,1.9,0.8,3.4,1.8,4.5c1.1,1.1,2.5,1.6,4.1,1.6c1.3,0,2.4-0.3,3.3-0.9
		c0.8-0.6,1.8-1.8,2.9-3.5l4.5,2.5c-0.7,1.2-1.4,2.2-2.2,3s-1.6,1.5-2.5,2.1s-1.8,0.9-2.8,1.2s-2.1,0.4-3.3,0.4
		c-3.4,0-6.1-1.1-8.2-3.3c-2.1-2.2-3.1-5.1-3.1-8.8c0-3.6,1-6.5,3-8.8c2-2.2,4.7-3.3,8-3.3c3.4,0,6,1.1,8,3.2
		c1.9,2.1,2.9,5.1,2.9,8.8L236.3,89.6z M230.9,85.3c-0.7-2.8-2.5-4.2-5.3-4.2c-0.6,0-1.2,0.1-1.8,0.3s-1.1,0.5-1.5,0.8
		s-0.9,0.8-1.2,1.3s-0.6,1.1-0.8,1.8H230.9z"/>
	<path class="st1" d="M259.9,78v7c-1.2-1.5-2.3-2.5-3.2-3c-0.9-0.6-2-0.8-3.3-0.8c-2,0-3.6,0.7-4.9,2.1s-2,3.1-2,5.2
		c0,2.1,0.6,3.9,1.9,5.3c1.3,1.4,2.9,2.1,4.9,2.1c1.3,0,2.4-0.3,3.4-0.8c0.9-0.5,2-1.6,3.3-3.1v7c-2.1,1.1-4.3,1.7-6.4,1.7
		c-3.5,0-6.5-1.1-8.9-3.4c-2.4-2.3-3.6-5.1-3.6-8.6s1.2-6.3,3.6-8.6s5.4-3.5,8.9-3.5C255.8,76.4,257.9,76.9,259.9,78z"/>
	<path class="st1" d="M270.4,81.9v17.9h-5.3V81.9h-2.2V77h2.2v-8.4h5.3V77h4.1v4.9H270.4z"/>
</g>
<g class="st2">
	<path class="st1" d="M34,44.1l-4.4,2.3c-0.7-1.4-1.5-2.1-2.6-2.1c-0.5,0-0.9,0.2-1.2,0.5s-0.5,0.7-0.5,1.2c0,0.9,1,1.7,3,2.6
		c2.8,1.2,4.7,2.3,5.6,3.3s1.5,2.4,1.5,4.1c0,2.2-0.8,4-2.4,5.5c-1.6,1.4-3.5,2.1-5.7,2.1c-3.8,0-6.5-1.9-8.1-5.6l4.5-2.1
		c0.6,1.1,1.1,1.8,1.4,2.1c0.6,0.6,1.4,0.9,2.3,0.9c1.8,0,2.7-0.8,2.7-2.4c0-0.9-0.7-1.8-2.1-2.6c-0.5-0.3-1.1-0.5-1.6-0.8
		s-1.1-0.5-1.6-0.8c-1.5-0.8-2.6-1.5-3.2-2.2c-0.8-1-1.2-2.2-1.2-3.7c0-2,0.7-3.6,2-4.9c1.4-1.3,3.1-1.9,5.1-1.9
		C30.4,39.5,32.6,41,34,44.1z"/>
	<path class="st1" d="M45.7,45.1V63h-5.3V45.1h-2.2v-4.9h2.2v-8.4h5.3v8.4h4.1v4.9H45.7z"/>
	<path class="st1" d="M74.6,52.8H58.2c0.1,1.9,0.8,3.4,1.8,4.5c1.1,1.1,2.5,1.6,4.1,1.6c1.3,0,2.4-0.3,3.3-0.9
		c0.8-0.6,1.8-1.8,2.9-3.5l4.5,2.5c-0.7,1.2-1.4,2.2-2.2,3s-1.6,1.5-2.5,2.1s-1.8,0.9-2.8,1.2s-2.1,0.4-3.3,0.4
		c-3.4,0-6.1-1.1-8.2-3.3c-2.1-2.2-3.1-5.1-3.1-8.8c0-3.6,1-6.5,3-8.8c2-2.2,4.7-3.3,8-3.3c3.4,0,6,1.1,8,3.2
		c1.9,2.1,2.9,5.1,2.9,8.8L74.6,52.8z M69.2,48.5c-0.7-2.8-2.5-4.2-5.3-4.2c-0.6,0-1.2,0.1-1.8,0.3s-1.1,0.5-1.5,0.8
		s-0.9,0.8-1.2,1.3s-0.6,1.1-0.8,1.8H69.2z"/>
	<path class="st1" d="M85.6,75.4h-5.3V40.2h5.3v2.5c2.1-2.1,4.4-3.1,7.1-3.1c3.1,0,5.7,1.2,7.8,3.5c2.1,2.3,3.1,5.2,3.1,8.7
		c0,3.4-1,6.3-3.1,8.6c-2,2.3-4.6,3.4-7.7,3.4c-2.7,0-5.1-1.1-7.2-3.2V75.4z M98.2,51.7c0-2.2-0.6-4-1.8-5.3
		c-1.2-1.4-2.7-2.1-4.5-2.1c-1.9,0-3.5,0.7-4.7,2s-1.8,3.1-1.8,5.3c0,2.1,0.6,3.9,1.8,5.3c1.2,1.4,2.8,2,4.7,2
		c1.8,0,3.3-0.7,4.5-2.1C97.5,55.5,98.2,53.8,98.2,51.7z"/>
	<path class="st1" d="M133.6,31.9h-6.3l3-5.1h8.7V63h-5.5V31.9z"/>
</g>
</svg>
