<?xml version="1.0" encoding="utf-8"?>
<!-- Generator: Adobe Illustrator 22.0.1, SVG Export Plug-In . SVG Version: 6.00 Build 0)  -->
<svg version="1.1" id="Layer_1" xmlns="http://www.w3.org/2000/svg" xmlns:xlink="http://www.w3.org/1999/xlink" x="0px" y="0px"
	 viewBox="0 0 300 128" style="enable-background:new 0 0 300 128;" xml:space="preserve">
<style type="text/css">
	.st0{fill:none;}
	.st1{fill:#484848;}
	.st2{enable-background:new    ;}
</style>
<g>
	<g>
		<g>
			<line class="st0" x1="196.4" y1="5.9" x2="145.7" y2="120.1"/>
		</g>
	</g>
	<g>
		<g>
			
				<rect x="108.5" y="60.8" transform="matrix(0.4048 -0.9144 0.9144 0.4048 44.1243 193.8148)" class="st1" width="124.9" height="4.5"/>
		</g>
	</g>
</g>
<g class="st2">
	<path class="st1" d="M188.6,80.9l-4.4,2.3c-0.7-1.4-1.5-2.1-2.6-2.1c-0.5,0-0.9,0.2-1.2,0.5s-0.5,0.7-0.5,1.2c0,0.9,1,1.7,3,2.6
		c2.8,1.2,4.7,2.3,5.6,3.3s1.5,2.4,1.5,4.1c0,2.2-0.8,4-2.4,5.5c-1.6,1.4-3.5,2.1-5.7,2.1c-3.8,0-6.5-1.9-8.1-5.6l4.5-2.1
		c0.6,1.1,1.1,1.8,1.4,2.1c0.6,0.6,1.4,0.9,2.3,0.9c1.8,0,2.7-0.8,2.7-2.4c0-0.9-0.7-1.8-2.1-2.6c-0.5-0.3-1.1-0.5-1.6-0.8
		s-1.1-0.5-1.6-0.8c-1.5-0.8-2.6-1.5-3.2-2.2c-0.8-1-1.2-2.2-1.2-3.7c0-2,0.7-3.6,2-4.9c1.4-1.3,3.1-1.9,5.1-1.9
		C185,76.4,187.2,77.9,188.6,80.9z"/>
	<path class="st1" d="M200.1,60.2v39.6h-5.3V60.2H200.1z"/>
	<path class="st1" d="M206,67.5c0-0.9,0.3-1.7,1-2.4c0.7-0.7,1.5-1,2.4-1c1,0,1.8,0.3,2.4,1c0.7,0.7,1,1.5,1,2.4s-0.3,1.8-1,2.4
		c-0.7,0.7-1.5,1-2.4,1s-1.8-0.3-2.4-1S206,68.5,206,67.5z M212,77v22.8h-5.3V77H212z"/>
	<path class="st1" d="M236.5,78v7c-1.2-1.5-2.3-2.5-3.2-3c-0.9-0.6-2-0.8-3.3-0.8c-2,0-3.6,0.7-4.9,2.1s-2,3.1-2,5.2
		c0,2.1,0.6,3.9,1.9,5.3c1.3,1.4,2.9,2.1,4.9,2.1c1.3,0,2.4-0.3,3.4-0.8c0.9-0.5,2-1.6,3.3-3.1v7c-2.1,1.1-4.3,1.7-6.4,1.7
		c-3.5,0-6.5-1.1-8.9-3.4c-2.4-2.3-3.6-5.1-3.6-8.6s1.2-6.3,3.6-8.6s5.4-3.5,8.9-3.5C232.4,76.4,234.5,76.9,236.5,78z"/>
	<path class="st1" d="M262.4,89.6H246c0.1,1.9,0.8,3.4,1.8,4.5c1.1,1.1,2.5,1.6,4.1,1.6c1.3,0,2.4-0.3,3.3-0.9
		c0.8-0.6,1.8-1.8,2.9-3.5l4.5,2.5c-0.7,1.2-1.4,2.2-2.2,3s-1.6,1.5-2.5,2.1s-1.8,0.9-2.8,1.2s-2.1,0.4-3.3,0.4
		c-3.4,0-6.1-1.1-8.2-3.3c-2.1-2.2-3.1-5.1-3.1-8.8c0-3.6,1-6.5,3-8.8c2-2.2,4.7-3.3,8-3.3c3.4,0,6,1.1,8,3.2
		c1.9,2.1,2.9,5.1,2.9,8.8L262.4,89.6z M257,85.3c-0.7-2.8-2.5-4.2-5.3-4.2c-0.6,0-1.2,0.1-1.8,0.3s-1.1,0.5-1.5,0.8
		s-0.9,0.8-1.2,1.3s-0.6,1.1-0.8,1.8H257z"/>
</g>
<g class="st2">
	<path class="st1" d="M49.8,44.1l-4.4,2.3c-0.7-1.4-1.5-2.1-2.6-2.1c-0.5,0-0.9,0.2-1.2,0.5s-0.5,0.7-0.5,1.2c0,0.9,1,1.7,3,2.6
		c2.8,1.2,4.7,2.3,5.6,3.3s1.5,2.4,1.5,4.1c0,2.2-0.8,4-2.4,5.5c-1.6,1.4-3.5,2.1-5.7,2.1c-3.8,0-6.5-1.9-8.1-5.6l4.5-2.1
		c0.6,1.1,1.1,1.8,1.4,2.1c0.6,0.6,1.4,0.9,2.3,0.9c1.8,0,2.7-0.8,2.7-2.4c0-0.9-0.7-1.8-2.1-2.6c-0.5-0.3-1.1-0.5-1.6-0.8
		s-1.1-0.5-1.6-0.8c-1.5-0.8-2.6-1.5-3.2-2.2c-0.8-1-1.2-2.2-1.2-3.7c0-2,0.7-3.6,2-4.9c1.4-1.3,3.1-1.9,5.1-1.9
		C46.2,39.5,48.4,41,49.8,44.1z"/>
	<path class="st1" d="M61.4,45.1V63h-5.3V45.1h-2.2v-4.9h2.2v-8.4h5.3v8.4h4.1v4.9H61.4z"/>
	<path class="st1" d="M90.3,52.8H74c0.1,1.9,0.8,3.4,1.8,4.5c1.1,1.1,2.5,1.6,4.1,1.6c1.3,0,2.4-0.3,3.3-0.9
		c0.8-0.6,1.8-1.8,2.9-3.5l4.5,2.5c-0.7,1.2-1.4,2.2-2.2,3s-1.6,1.5-2.5,2.1s-1.8,0.9-2.8,1.2s-2.1,0.4-3.3,0.4
		c-3.4,0-6.1-1.1-8.2-3.3c-2.1-2.2-3.1-5.1-3.1-8.8c0-3.6,1-6.5,3-8.8c2-2.2,4.7-3.3,8-3.3c3.4,0,6,1.1,8,3.2
		c1.9,2.1,2.9,5.1,2.9,8.8L90.3,52.8z M84.9,48.5c-0.7-2.8-2.5-4.2-5.3-4.2c-0.6,0-1.2,0.1-1.8,0.3s-1.1,0.5-1.5,0.8
		s-0.9,0.8-1.2,1.3s-0.6,1.1-0.8,1.8H84.9z"/>
	<path class="st1" d="M101.4,75.4h-5.3V40.2h5.3v2.5c2.1-2.1,4.4-3.1,7.1-3.1c3.1,0,5.7,1.2,7.8,3.5c2.1,2.3,3.1,5.2,3.1,8.7
		c0,3.4-1,6.3-3.1,8.6c-2,2.3-4.6,3.4-7.7,3.4c-2.7,0-5.1-1.1-7.2-3.2V75.4z M113.9,51.7c0-2.2-0.6-4-1.8-5.3
		c-1.2-1.4-2.7-2.1-4.5-2.1c-1.9,0-3.5,0.7-4.7,2s-1.8,3.1-1.8,5.3c0,2.1,0.6,3.9,1.8,5.3c1.2,1.4,2.8,2,4.7,2
		c1.8,0,3.3-0.7,4.5-2.1C113.3,55.5,113.9,53.8,113.9,51.7z"/>
	<path class="st1" d="M148.4,57.9h13.5V63h-24.3l12.6-15.2c1.2-1.5,2.3-2.8,3.1-3.9s1.5-2,1.9-2.8c0.9-1.5,1.3-2.8,1.3-4
		c0-1.7-0.6-3.1-1.8-4.2s-2.7-1.7-4.4-1.7c-3.7,0-5.8,2.2-6.3,6.5h-5.4c0.9-7.6,4.7-11.4,11.6-11.4c3.3,0,6.1,1,8.3,3.1
		c2.2,2.1,3.4,4.7,3.4,7.8c0,2-0.5,3.9-1.6,5.8c-0.5,1-1.3,2.2-2.3,3.5s-2.3,2.9-3.9,4.8L148.4,57.9z"/>
</g>
</svg>
